<svg width="1em" height="1em" viewBox="0 0 20 20" fill="none" xmlns="http://www.w3.org/2000/svg">
<path d="M1.66669 3.33329C1.66669 2.41282 2.41288 1.66663 3.33335 1.66663C4.25383 1.66663 5.00002 2.41282 5.00002 3.33329C5.00002 4.25377 4.25383 4.99996 3.33335 4.99996C2.41288 4.99996 1.66669 4.25377 1.66669 3.33329Z" fill="#7C8291"/>
<path d="M8.33335 3.33329C8.33335 2.41282 9.07955 1.66663 10 1.66663C10.9205 1.66663 11.6667 2.41282 11.6667 3.33329C11.6667 4.25377 10.9205 4.99996 10 4.99996C9.07955 4.99996 8.33335 4.25377 8.33335 3.33329Z" fill="#7C8291"/>
<path d="M16.6667 1.66663C15.7462 1.66663 15 2.41282 15 3.33329C15 4.25377 15.7462 4.99996 16.6667 4.99996C17.5872 4.99996 18.3334 4.25377 18.3334 3.33329C18.3334 2.41282 17.5872 1.66663 16.6667 1.66663Z" fill="#7C8291"/>
<path d="M1.66669 9.99996C1.66669 9.07948 2.41288 8.33329 3.33335 8.33329C4.25383 8.33329 5.00002 9.07948 5.00002 9.99996C5.00002 10.9204 4.25383 11.6666 3.33335 11.6666C2.41288 11.6666 1.66669 10.9204 1.66669 9.99996Z" fill="#7C8291"/>
<path d="M10 8.33329C9.07955 8.33329 8.33335 9.07948 8.33335 9.99996C8.33335 10.9204 9.07955 11.6666 10 11.6666C10.9205 11.6666 11.6667 10.9204 11.6667 9.99996C11.6667 9.07948 10.9205 8.33329 10 8.33329Z" fill="#7C8291"/>
<path d="M15 9.99996C15 9.07948 15.7462 8.33329 16.6667 8.33329C17.5872 8.33329 18.3334 9.07948 18.3334 9.99996C18.3334 10.9204 17.5872 11.6666 16.6667 11.6666C15.7462 11.6666 15 10.9204 15 9.99996Z" fill="#7C8291"/>
<path d="M3.33335 15C2.41288 15 1.66669 15.7462 1.66669 16.6666C1.66669 17.5871 2.41288 18.3333 3.33335 18.3333C4.25383 18.3333 5.00002 17.5871 5.00002 16.6666C5.00002 15.7462 4.25383 15 3.33335 15Z" fill="#7C8291"/>
<path d="M8.33335 16.6666C8.33335 15.7462 9.07955 15 10 15C10.9205 15 11.6667 15.7462 11.6667 16.6666C11.6667 17.5871 10.9205 18.3333 10 18.3333C9.07955 18.3333 8.33335 17.5871 8.33335 16.6666Z" fill="#7C8291"/>
<path d="M16.6667 15C15.7462 15 15 15.7462 15 16.6666C15 17.5871 15.7462 18.3333 16.6667 18.3333C17.5872 18.3333 18.3334 17.5871 18.3334 16.6666C18.3334 15.7462 17.5872 15 16.6667 15Z" fill="#7C8291"/>
<path d="M1.66669 3.33329C1.66669 2.41282 2.41288 1.66663 3.33335 1.66663C4.25383 1.66663 5.00002 2.41282 5.00002 3.33329C5.00002 4.25377 4.25383 4.99996 3.33335 4.99996C2.41288 4.99996 1.66669 4.25377 1.66669 3.33329Z" stroke="#D4D8DD"/>
<path d="M8.33335 3.33329C8.33335 2.41282 9.07955 1.66663 10 1.66663C10.9205 1.66663 11.6667 2.41282 11.6667 3.33329C11.6667 4.25377 10.9205 4.99996 10 4.99996C9.07955 4.99996 8.33335 4.25377 8.33335 3.33329Z" stroke="#D4D8DD"/>
<path d="M16.6667 1.66663C15.7462 1.66663 15 2.41282 15 3.33329C15 4.25377 15.7462 4.99996 16.6667 4.99996C17.5872 4.99996 18.3334 4.25377 18.3334 3.33329C18.3334 2.41282 17.5872 1.66663 16.6667 1.66663Z" stroke="#D4D8DD"/>
<path d="M1.66669 9.99996C1.66669 9.07948 2.41288 8.33329 3.33335 8.33329C4.25383 8.33329 5.00002 9.07948 5.00002 9.99996C5.00002 10.9204 4.25383 11.6666 3.33335 11.6666C2.41288 11.6666 1.66669 10.9204 1.66669 9.99996Z" stroke="#D4D8DD"/>
<path d="M10 8.33329C9.07955 8.33329 8.33335 9.07948 8.33335 9.99996C8.33335 10.9204 9.07955 11.6666 10 11.6666C10.9205 11.6666 11.6667 10.9204 11.6667 9.99996C11.6667 9.07948 10.9205 8.33329 10 8.33329Z" stroke="#D4D8DD"/>
<path d="M15 9.99996C15 9.07948 15.7462 8.33329 16.6667 8.33329C17.5872 8.33329 18.3334 9.07948 18.3334 9.99996C18.3334 10.9204 17.5872 11.6666 16.6667 11.6666C15.7462 11.6666 15 10.9204 15 9.99996Z" stroke="#D4D8DD"/>
<path d="M3.33335 15C2.41288 15 1.66669 15.7462 1.66669 16.6666C1.66669 17.5871 2.41288 18.3333 3.33335 18.3333C4.25383 18.3333 5.00002 17.5871 5.00002 16.6666C5.00002 15.7462 4.25383 15 3.33335 15Z" stroke="#D4D8DD"/>
<path d="M8.33335 16.6666C8.33335 15.7462 9.07955 15 10 15C10.9205 15 11.6667 15.7462 11.6667 16.6666C11.6667 17.5871 10.9205 18.3333 10 18.3333C9.07955 18.3333 8.33335 17.5871 8.33335 16.6666Z" stroke="#D4D8DD"/>
<path d="M16.6667 15C15.7462 15 15 15.7462 15 16.6666C15 17.5871 15.7462 18.3333 16.6667 18.3333C17.5872 18.3333 18.3334 17.5871 18.3334 16.6666C18.3334 15.7462 17.5872 15 16.6667 15Z" stroke="#D4D8DD"/>
</svg>
