<svg width="200" height="20" viewBox="0 0 200 20" fill="none" xmlns="http://www.w3.org/2000/svg">
<g id="Main/&#227;&#130;&#175;&#227;&#131;&#169;&#227;&#130;&#166;&#227;&#131;&#137;">
<path id="Vector" d="M197.132 2.40125H195.513V5.03331H197.132V2.40125ZM171.318 2.58941H162.707V4.42245H171.317L171.318 2.58941ZM192.668 2.40951V2.40216H190.675V15.5611H192.668V9.27352C194.967 9.91375 197.219 10.7157 199.405 11.6734V9.3419C197.204 8.46006 194.955 7.70493 192.667 7.08021L192.668 2.40951ZM197.954 2.40125V5.03331H199.599V2.40125H197.954ZM185.367 4.32882H182.448V2.40125H180.457V4.32882H177.611C176.329 4.32882 175.681 4.94657 175.681 6.19674V9.06929H177.642V6.70755C177.642 6.22886 177.797 6.07466 178.337 6.07466H184.749C185.259 6.07466 185.443 6.22886 185.443 6.6768V6.78465C185.352 8.57454 184.841 10.0891 183.776 11.2621C182.8 12.3558 181.16 13.1691 179.354 13.6078V15.5611C181.336 15.2701 183.482 14.3284 185.028 12.7904C186.574 11.2525 187.36 9.06975 187.483 6.6153C187.483 6.55334 187.483 6.47761 187.483 6.41428C187.478 5.03147 186.911 4.3302 185.367 4.3302V4.32882ZM171.167 6.2564H161.437V8.09219H170.348C170.765 8.09219 170.935 8.24686 170.935 8.49377C170.935 8.58834 170.919 8.68225 170.889 8.77189C170.238 11.1245 168.14 13.0704 164.234 13.6078V15.5611C169.219 15.1072 172.192 12.2567 172.945 8.77189C173.003 8.51337 173.034 8.24937 173.036 7.98434C173.036 7.59836 172.959 7.28949 172.789 7.02743C172.479 6.53315 171.984 6.25548 171.167 6.25548V6.2564ZM156.97 3.52567H152.69C152.841 3.16524 152.978 2.79043 153.103 2.40125H150.958C150.624 3.31914 150.234 4.11036 149.581 4.98466C149.019 5.73228 148.391 6.3973 147.745 6.89388V9.32171C149.017 8.51767 150.142 7.50351 151.074 6.32249C151.328 5.9975 151.563 5.65807 151.778 5.30592H156.15C156.605 5.30592 156.765 5.45095 156.746 5.73091C156.741 5.81543 156.73 5.89955 156.715 5.98287C155.916 9.6292 153.355 12.3696 149.355 13.5491V15.562C154.724 14.3229 157.912 10.5361 158.838 6.04574C158.886 5.81786 158.913 5.586 158.917 5.35319C158.923 4.21868 158.261 3.51006 156.97 3.52567Z" fill="#4A4A4A"/>
<path id="Vector_2" d="M35.1384 2.22727L37.0783 15.5046H34.5362L33.5059 7.47809H33.4719L30.5347 15.6767H29.6595L26.8236 7.47809H26.7906L25.6391 15.5046H23.0974L25.2783 2.22727H27.0646L30.2588 10.7545L33.3159 2.22727H35.1384ZM46.853 11.303C46.853 13.9111 45.0686 15.7804 42.4237 15.7804C39.7788 15.7804 37.9935 13.9111 37.9935 11.303C37.9935 8.67915 39.7958 6.80848 42.4237 6.80848C45.0516 6.80848 46.853 8.67915 46.853 11.303ZM44.416 11.303C44.416 10.1368 43.6592 8.9357 42.4237 8.9357C41.1882 8.9357 40.431 10.1368 40.431 11.303C40.431 12.4352 41.1864 13.6541 42.4237 13.6541C43.661 13.6541 44.416 12.4352 44.416 11.303ZM53.0391 6.80848C52.1805 6.80848 51.3383 7.10037 50.8413 7.85488H50.8064V7.08247H48.4024V15.5046H50.8064V11.3378C50.8064 10.3249 50.8243 8.73009 52.2488 8.73009C53.605 8.73009 53.5541 10.034 53.5541 11.0459V15.5046H55.9581V10.3589C55.9581 8.40424 55.3059 6.80848 53.0391 6.80848ZM65.5831 11.3888V11.6807H60.0372C60.0372 12.7431 60.4475 13.9451 61.7018 13.9451C62.4921 13.9451 62.99 13.4641 63.3164 12.7977L65.5322 13.1571C64.9488 14.8391 63.4715 15.7823 61.7018 15.7823C59.0922 15.7823 57.4955 13.93 57.4955 11.3727C57.4955 8.81546 58.8522 6.81032 61.5829 6.81032C64.3467 6.80848 65.5831 8.84896 65.5831 11.3888ZM63.3164 10.1877C63.1966 9.32856 62.6463 8.4896 61.7188 8.4896C60.7577 8.4896 60.2244 9.31296 60.1056 10.1877H63.3164ZM70.6981 11.8702L68.6874 7.08247H65.9576L69.5466 14.2214L66.7649 20H69.4089L75.5413 7.08247H72.8611L70.6981 11.8702ZM94.5931 11.303C94.5931 13.9111 92.8069 15.7804 90.162 15.7804C87.5171 15.7804 85.7304 13.9111 85.7304 11.303C85.7304 8.67915 87.5341 6.80848 90.162 6.80848C92.7899 6.80848 94.5931 8.67915 94.5931 11.303ZM92.1543 11.303C92.1543 10.1368 91.3993 8.9357 90.162 8.9357C88.9247 8.9357 88.1693 10.1368 88.1693 11.303C88.1693 12.4352 88.9256 13.6541 90.162 13.6541C91.3984 13.6541 92.1543 12.4352 92.1543 11.303ZM98.4084 7.95769H98.3744V7.08247H95.9695V15.5046H98.3744V11.7155C98.3744 10.4117 98.5456 8.9357 100.21 8.9357C100.567 8.93215 100.916 9.04014 101.208 9.24457L101.5 7.01455C101.183 6.88537 100.845 6.81552 100.503 6.80848C99.6076 6.80848 98.887 7.22108 98.4084 7.95769ZM123.146 7.08247H125.516V15.5046H123.146V14.734H123.112C122.597 15.4036 121.701 15.7804 120.827 15.7804C118.353 15.7804 116.946 13.5316 116.946 11.252C116.946 9.02061 118.371 6.80848 120.792 6.80848C121.668 6.80848 122.561 7.18528 123.146 7.87278V7.08247ZM123.386 11.2869C123.386 10.1528 122.614 8.9357 121.377 8.9357C120.141 8.9357 119.382 10.1524 119.382 11.2869C119.382 12.4214 120.138 13.6541 121.375 13.6541C122.612 13.6541 123.383 12.4173 123.383 11.2869H123.386ZM129.943 7.95769H129.909V7.08247H127.504V15.5046H129.909V11.7155C129.909 10.4117 130.082 8.9357 131.744 8.9357C132.1 8.93258 132.447 9.04058 132.738 9.24457L133.03 7.01455C132.713 6.88533 132.376 6.81548 132.034 6.80848C131.143 6.80848 130.422 7.22108 129.94 7.95769H129.943ZM142.042 2.57102V15.5046H139.637V14.7161H139.603C139.104 15.4046 138.212 15.7804 137.337 15.7804C134.863 15.7804 133.455 13.5316 133.455 11.252C133.455 9.02061 134.88 6.80848 137.302 6.80848C138.178 6.80848 139.072 7.18528 139.603 7.85488H139.637V2.57102H142.042ZM139.876 11.2869C139.876 10.1528 139.12 8.9357 137.883 8.9357C136.647 8.9357 135.891 10.1524 135.891 11.2869C135.891 12.4214 136.648 13.6541 137.883 13.6541C139.119 13.6541 139.876 12.4173 139.876 11.2869ZM78.698 15.5046H81.2222V9.81091H84.8809V7.61393H81.224V4.76846H85.1205V2.5724H78.6984L78.698 15.5046ZM120.402 4.98417C120.395 4.98417 120.598 2.6238 120.598 2.62288C120.106 2.62558 119.617 2.68721 119.14 2.80646C117.127 3.30763 115.554 4.73909 114.472 6.45968C113.675 7.72408 113.087 9.10964 112.466 10.464C112.386 10.639 112.306 10.8139 112.226 10.9886C112.173 11.1042 112.099 11.2502 112.015 11.4076L110.107 6.80848H108.772L106.822 11.5292L104.96 7.08247H102.333L106.21 15.6767H107.45L109.458 10.5484L111.263 15.6767H112.481C112.481 15.6767 112.503 15.6267 112.513 15.6047C112.86 14.885 114.881 10.3727 115.684 8.80307C116.032 8.12245 116.512 7.3147 117 6.73321C117.886 5.67672 119.109 4.94699 120.403 4.98417H120.402ZM13.7358 11.5958C13.5034 11.6036 13.2726 11.5531 13.0647 11.4489C12.8567 11.3447 12.6782 11.1901 12.5453 10.9991L10.9849 8.77461L9.7797 12.292C9.69828 12.5303 9.55397 12.7423 9.36202 12.9054C9.17008 13.0685 8.93763 13.1767 8.68925 13.2186C8.44099 13.2612 8.18583 13.2361 7.95069 13.1458C7.71555 13.0554 7.50914 12.9033 7.35325 12.7055L6.29767 11.3612L5.52664 13.8327C5.43739 14.1182 5.25923 14.3677 5.01814 14.5448C4.77705 14.7219 4.48566 14.8173 4.18651 14.8171C4.04516 14.8169 3.90466 14.7952 3.76979 14.7529C3.59422 14.6983 3.4311 14.6098 3.28976 14.4922C3.14842 14.3746 3.03162 14.2303 2.94605 14.0676C2.86047 13.9049 2.80778 13.7269 2.79099 13.5438C2.77421 13.3608 2.79366 13.1762 2.84822 13.0006L4.40864 7.98889C4.48476 7.74522 4.62594 7.52693 4.81697 7.35758C5.008 7.18823 5.24163 7.07422 5.49268 7.02786C5.74379 6.98165 6.00275 7.00484 6.24165 7.09494C6.48055 7.18503 6.69034 7.33861 6.84841 7.53913L7.96273 8.95268L9.22667 5.26321C9.31071 5.01869 9.46073 4.80217 9.66014 4.63759C9.85955 4.47301 10.1006 4.36677 10.3566 4.33063C10.6127 4.29469 10.8737 4.33018 11.1109 4.43319C11.3482 4.5362 11.5523 4.70273 11.7009 4.91441L13.6151 7.64514L16.1953 3.44302C15.3373 2.40564 14.2606 1.57076 13.0422 0.998152C11.8239 0.425541 10.494 0.129357 9.14773 0.130801C4.09564 0.130801 0 4.22231 0 9.26844C0 14.3146 4.09564 18.407 9.14773 18.407C14.1998 18.407 18.295 14.3159 18.295 9.26844C18.2953 8.23229 18.1193 7.20364 17.7746 6.22654L14.8869 10.9285C14.7654 11.1264 14.5966 11.2911 14.3957 11.4075C14.1947 11.524 13.968 11.5887 13.7358 11.5958ZM18.9219 5.21753e-07C18.6832 -0.000180347 18.4468 0.0466651 18.2262 0.137861C18.0056 0.229057 17.8051 0.362818 17.6362 0.531503C17.4674 0.700188 17.3333 0.900492 17.2419 1.12098C17.1504 1.34146 17.1032 1.57781 17.1031 1.81651C17.1036 2.29845 17.2955 2.76045 17.6366 3.10093C17.9777 3.44141 18.44 3.63247 18.9219 3.63211C19.4037 3.63223 19.8657 3.44104 20.2065 3.10058C20.5473 2.76011 20.739 2.29825 20.7394 1.81651C20.7392 1.57784 20.6921 1.34154 20.6007 1.12108C20.5092 0.900628 20.3752 0.700344 20.2064 0.531665C20.0375 0.362986 19.8371 0.229217 19.6166 0.137993C19.396 0.0467704 19.1597 -0.000120048 18.921 5.21753e-07H18.9219Z" fill="#0054AC"/>
</g>
</svg>
