<svg width="232" height="20" viewBox="0 0 232 20" fill="none" xmlns="http://www.w3.org/2000/svg">
<g clip-path="url(#clip0_13115_5163)">
<path d="M35.1382 2.22712L37.0779 15.5054H34.5359L33.5059 7.4782H33.472L30.5361 15.677H29.6603L26.8246 7.4782H26.7915L25.6403 15.5054H23.0983L25.2786 2.22712H27.0651L30.2589 10.7546L33.3159 2.22712H35.1372H35.1382ZM46.853 11.3036C46.853 13.9117 45.0684 15.7808 42.4236 15.7808C39.7788 15.7808 37.9932 13.9117 37.9932 11.3036C37.9932 8.69549 39.7962 6.80896 42.4236 6.80896C45.0509 6.80896 46.853 8.67989 46.853 11.3036ZM44.4157 11.3036C44.4157 10.1377 43.6583 8.93601 42.4236 8.93601C41.1888 8.93601 40.4306 10.1368 40.4306 11.3036C40.4306 12.4704 41.1861 13.6546 42.4236 13.6546C43.6611 13.6546 44.4157 12.4355 44.4157 11.3036ZM53.0387 6.80896C52.1803 6.80896 51.3385 7.10089 50.8409 7.8555H50.806V7.08345H48.4026V15.5063H50.806V11.3394C50.806 10.3259 50.8244 8.7313 52.2482 8.7313C53.6721 8.7313 53.5537 10.0349 53.5537 11.0475V15.5063H55.958V10.3599C55.958 8.4054 55.3062 6.80988 53.0387 6.80988V6.80896ZM65.5825 11.389V11.6809H60.0367C60.0367 12.743 60.4471 13.9457 61.7011 13.9457C62.4915 13.9457 62.9891 13.4646 63.3159 12.7963L65.5311 13.1562C64.9481 14.838 63.4701 15.7808 61.7011 15.7808C59.0912 15.7808 57.4947 13.9282 57.4947 11.3715C57.4947 8.81484 58.8516 6.80896 61.5817 6.80896C64.3119 6.80896 65.5825 8.84972 65.5825 11.389ZM63.3159 10.1882C63.1956 9.32893 62.6457 8.49077 61.7185 8.49077C60.7913 8.49077 60.224 9.31424 60.1047 10.1882H63.3159ZM70.6977 11.8709L68.6872 7.08253H65.957L69.5465 14.222L66.7649 20.0009H69.4088L75.5412 7.08253H72.8605L70.6977 11.8709ZM94.5929 11.3036C94.5929 13.9117 92.8064 15.7808 90.1616 15.7808C87.5168 15.7808 85.7303 13.9117 85.7303 11.3036C85.7303 8.69549 87.5342 6.80896 90.1616 6.80896C92.7889 6.80896 94.5929 8.67989 94.5929 11.3036ZM92.1546 11.3036C92.1546 10.1377 91.3991 8.93601 90.1625 8.93601C88.9259 8.93601 88.1695 10.1368 88.1695 11.3036C88.1695 12.4704 88.9259 13.6546 90.1625 13.6546C91.3991 13.6546 92.1546 12.4355 92.1546 11.3036ZM98.4063 7.95832H98.3723V7.08253H95.9681V15.5054H98.3723V11.7158C98.3723 10.4122 98.5431 8.93601 100.21 8.93601C100.569 8.93601 100.913 9.03791 101.206 9.24447L101.498 7.0146C101.188 6.89434 100.845 6.80896 100.501 6.80896C99.608 6.80896 98.8874 7.22115 98.4063 7.95832ZM123.144 7.08253H125.514V15.5054H123.144V14.7352H123.11C122.595 15.4044 121.7 15.7817 120.825 15.7817C118.351 15.7817 116.944 13.5325 116.944 11.2531C116.944 8.97365 118.37 6.80988 120.79 6.80988C121.666 6.80988 122.56 7.18627 123.144 7.87386V7.08345V7.08253ZM123.385 11.2871C123.385 10.1533 122.613 8.93601 121.376 8.93601C120.14 8.93601 119.384 10.1533 119.384 11.2871C119.384 12.4208 120.14 13.6546 121.376 13.6546C122.613 13.6546 123.385 12.4181 123.385 11.2871ZM129.941 7.9574H129.907V7.08161H127.503V15.5045H129.907V11.7149C129.907 10.4113 130.08 8.9351 131.745 8.9351C132.105 8.9351 132.449 9.037 132.74 9.24355L133.032 7.01368C132.723 6.89342 132.38 6.80804 132.036 6.80804C131.144 6.80804 130.423 7.22023 129.941 7.9574ZM142.041 2.57046V15.5045H139.636V14.7159H139.602C139.103 15.4035 138.212 15.7799 137.337 15.7799C134.863 15.7799 133.455 13.5307 133.455 11.2513C133.455 8.97182 134.88 6.80804 137.302 6.80804C138.178 6.80804 139.072 7.18443 139.602 7.85459H139.636V2.57046H142.041ZM139.877 11.2861C139.877 10.1524 139.121 8.9351 137.884 8.9351C136.647 8.9351 135.892 10.1524 135.892 11.2861C135.892 12.4199 136.649 13.6537 137.884 13.6537C139.119 13.6537 139.877 12.4171 139.877 11.2861ZM78.6982 15.5045H81.2237V9.81089H84.8811V7.61406H81.2237V4.76728H85.1198V2.57138H78.6973V15.5054L78.6982 15.5045ZM120.404 4.98393C120.397 4.98393 120.599 2.6237 120.599 2.62279C120.108 2.62462 119.618 2.68705 119.142 2.80639C117.128 3.30763 115.555 4.73974 114.472 6.46011C113.676 7.72423 113.087 9.11044 112.467 10.4645C112.387 10.6389 112.306 10.8143 112.226 10.9887C112.173 11.1044 112.1 11.2503 112.016 11.4082L110.108 6.80896H108.774L106.823 11.5313L104.961 7.08253H102.334L106.213 15.677H107.451L109.459 10.549L111.265 15.677C111.641 15.677 112.482 15.677 112.482 15.677C112.482 15.677 112.503 15.6275 112.514 15.6054C112.861 14.8857 114.882 10.3718 115.685 8.80382C116.034 8.12357 116.514 7.31571 117.002 6.73368C117.888 5.67704 119.11 4.94721 120.405 4.98393H120.404ZM13.7345 11.5955C13.259 11.612 12.8156 11.3853 12.5438 10.9988L10.985 8.77444L9.77967 12.2923C9.61351 12.7779 9.1949 13.1332 8.68907 13.2186C8.18232 13.3049 7.67098 13.1075 7.35243 12.7045L6.29303 11.3605L5.52189 13.8327C5.33462 14.4322 4.78105 14.8169 4.18434 14.8169C4.04572 14.8169 3.90618 14.7957 3.76756 14.7526C3.02855 14.5231 2.61636 13.7382 2.84586 13.0001L4.40834 7.9877C4.56348 7.49105 4.98026 7.122 5.49252 7.02653C6.00386 6.93289 6.52621 7.12935 6.84752 7.53787L7.96199 8.95162L9.22611 5.26209C9.39686 4.76361 9.83384 4.40375 10.3562 4.32939C10.8785 4.25686 11.3972 4.48178 11.7002 4.91325L13.6142 7.64436L16.1948 3.44258C14.5176 1.42018 11.9838 0.130359 9.14808 0.130359C4.09621 0.130359 0 4.22198 0 9.26834C0 14.3147 4.09621 18.4072 9.14808 18.4072C14.1999 18.4072 18.2952 14.3156 18.2952 9.26834C18.2952 8.2016 18.1107 7.178 17.7747 6.22602L14.8866 10.9281C14.6397 11.3302 14.2064 11.5817 13.7345 11.5955ZM18.9204 0C17.9161 0 17.1018 0.813366 17.1018 1.81585C17.1018 2.81832 17.9161 3.63169 18.9204 3.63169C19.9247 3.63169 20.7381 2.81832 20.7381 1.81585C20.7381 0.813366 19.9238 0 18.9204 0Z" fill="#0054AC"/>
<path d="M209.196 1.33481H207.491V3.02121H201.972V4.6048H207.491V6.49133H202.886V8.01341H204.37C204.613 8.51557 204.857 8.98743 205.162 9.4446C205.74 10.2809 206.41 11.0429 207.172 11.7121C205.695 12.5034 203.99 13.0818 202.178 13.4316C202.124 13.4407 202.048 13.4545 201.973 13.4683V15.3254C202.306 15.2529 202.597 15.1887 202.634 15.1822C204.781 14.7416 206.837 13.919 208.603 12.8385C210.308 13.9952 212.287 14.8013 214.344 15.1978C214.387 15.2052 214.68 15.2685 214.974 15.3328V13.4417C214.92 13.4334 214.867 13.4251 214.815 13.4169C213.109 13.1121 211.496 12.564 210.11 11.803C211.343 10.8446 212.378 9.73286 213.109 8.54678C213.292 8.242 213.383 7.93721 213.383 7.64895C213.383 6.99441 212.881 6.49225 211.937 6.49225H209.196V4.60572H214.973V3.02213H209.196V1.33481ZM210.84 8.01249C211.083 8.01249 211.19 8.074 211.19 8.19518C211.19 8.25577 211.144 8.33196 211.083 8.43845C210.444 9.33628 209.607 10.1432 208.618 10.8271C207.628 10.0514 206.821 9.10769 206.211 8.01157L210.84 8.01249Z" fill="#4A4A4A"/>
<path d="M222.211 7.45801C221.572 7.70587 220.725 8.01249 220.514 8.08961V5.73121H222.163V4.19352H220.514V1.58543H218.839V4.19352H217.053V5.73121H218.839V8.66796C218.4 8.81484 217.428 9.09851 216.784 9.27661V10.9951C217.179 10.8886 218.428 10.4792 218.839 10.3424V13.3554C218.839 13.752 218.763 13.8575 218.337 13.8575C218.175 13.8575 217.373 13.7446 216.851 13.6675V15.2676C217.531 15.3879 218.365 15.4714 218.717 15.4714C219.965 15.4714 220.513 14.9995 220.513 13.7969V9.76316C220.8 9.64932 221.549 9.36933 222.21 9.1031V7.45709L222.211 7.45801Z" fill="#4A4A4A"/>
<path d="M230.729 14.1935C230.074 12.0628 229.238 9.88617 228.263 7.98403C228.262 7.98128 228.26 7.97669 228.258 7.97393H226.402C226.547 8.29065 226.696 8.60186 226.725 8.66888C227.289 9.85679 227.806 11.1338 228.263 12.4282C226.863 12.732 225.461 12.9606 224.045 13.1286C225.126 9.76407 226.07 5.85331 226.618 2.4144C226.628 2.37676 226.678 2.02791 226.716 1.75067H224.857C224.836 1.87552 224.815 2.00129 224.792 2.15552C224.289 5.73213 223.406 9.8265 222.233 13.3113C222.036 13.3269 221.852 13.3416 221.655 13.3572C221.562 13.3655 221.425 13.3746 221.274 13.3838L221.419 15.1115C221.614 15.0923 221.797 15.0739 221.914 15.062C224.12 14.8334 226.481 14.423 228.734 13.8594C228.785 14.0375 228.967 14.6406 229.134 15.196H231C231 15.129 230.746 14.2504 230.729 14.1935Z" fill="#4A4A4A"/>
<path d="M196.903 2.3887H195.289V5.01148H196.903V2.3887ZM171.173 2.57597H162.591V4.40192H171.173V2.57597ZM192.453 2.38961H190.467V15.5017H192.453V9.23438C194.673 9.8467 197.071 10.6995 199.169 11.6258V9.30506C197.028 8.44672 194.782 7.68751 192.453 7.05132V2.38961ZM197.723 2.3887V5.01148H199.362V2.3887H197.723ZM185.176 4.31103H182.267V2.38961H180.282V4.31103H177.446C176.169 4.31103 175.522 4.92611 175.522 6.17186V9.03241H177.477V6.67953C177.477 6.20307 177.631 6.04885 178.169 6.04885H184.56C185.068 6.04885 185.252 6.20307 185.252 6.64923V6.75664C185.16 8.54127 184.652 10.0487 183.59 11.2173C182.617 12.307 180.981 13.1176 179.182 13.5546V15.5008C181.156 15.2107 183.295 14.2725 184.836 12.7403C186.377 11.2081 187.16 9.03333 187.283 6.58772C187.283 6.52622 187.283 6.4491 187.283 6.3876C187.278 5.00965 186.714 4.31103 185.176 4.31103ZM171.022 6.22878H161.324V8.05931H170.207C170.623 8.05931 170.792 8.21354 170.792 8.45957C170.792 8.55229 170.776 8.64409 170.746 8.73681C170.097 11.0805 168.005 13.0203 164.11 13.5555V15.5017C169.078 15.0491 172.042 12.2106 172.792 8.73681C172.854 8.45957 172.885 8.18324 172.885 7.9519C172.885 7.56725 172.808 7.25972 172.639 6.99808C172.331 6.50602 171.837 6.22878 171.022 6.22878ZM156.871 3.5096H152.605C152.755 3.15065 152.893 2.7761 153.017 2.38961H150.877C150.545 3.30213 150.155 4.09254 149.503 4.96374C148.946 5.70826 148.32 6.37107 147.678 6.86497V9.28395C149.049 8.40816 150.118 7.40843 150.996 6.29579C151.239 5.98917 151.473 5.64859 151.698 5.28322H156.056C156.509 5.28138 156.669 5.42826 156.653 5.70734C156.647 5.79731 156.636 5.86891 156.621 5.95796C155.825 9.59149 153.272 12.3217 149.285 13.4967V15.5026H149.287C154.641 14.2688 157.817 10.4948 158.74 6.02039C158.787 5.76977 158.818 5.54944 158.818 5.33003C158.818 4.20087 158.159 3.49491 156.872 3.51052L156.871 3.5096Z" fill="#4A4A4A"/>
</g>
<defs>
<clipPath id="clip0_13115_5163">
<rect width="232" height="20" fill="white"/>
</clipPath>
</defs>
</svg>
