<svg width="20" height="20" viewBox="0 0 20 20" fill="none" xmlns="http://www.w3.org/2000/svg">
<path d="M15 9.16671V10.8334H18.3333V9.16671H15ZM13.3333 14.675C14.1333 15.2667 15.175 16.05 16 16.6667C16.3333 16.225 16.6666 15.775 17 15.3334C16.175 14.7167 15.1333 13.9334 14.3333 13.3334C14 13.7834 13.6666 14.2334 13.3333 14.675ZM17 4.66671C16.6666 4.22504 16.3333 3.77504 16 3.33337C15.175 3.95004 14.1333 4.73337 13.3333 5.33337C13.6666 5.77504 14 6.22504 14.3333 6.66671C15.1333 6.06671 16.175 5.29171 17 4.66671ZM3.33329 7.50004C2.41663 7.50004 1.66663 8.25004 1.66663 9.16671V10.8334C1.66663 11.75 2.41663 12.5 3.33329 12.5H4.16663V15.8334H5.83329V12.5H6.66663L10.8333 15V5.00004L6.66663 7.50004H3.33329ZM12.9166 10C12.9166 8.89171 12.4333 7.89171 11.6666 7.20837V12.7834C12.4333 12.1084 12.9166 11.1084 12.9166 10Z" fill="currentColor"/>
</svg>
