<svg width="20" height="20" viewBox="0 0 20 20" fill="none" xmlns="http://www.w3.org/2000/svg">
<path d="M9.99996 1.66663C5.39996 1.66663 1.66663 5.39996 1.66663 9.99996C1.66663 14.6 5.39996 18.3333 9.99996 18.3333C14.6 18.3333 18.3333 14.6 18.3333 9.99996C18.3333 5.39996 14.6 1.66663 9.99996 1.66663ZM10.8333 15.8333H9.16663V14.1666H10.8333V15.8333ZM12.5583 9.37496L11.8083 10.1416C11.2083 10.75 10.8333 11.25 10.8333 12.5H9.16663V12.0833C9.16663 11.1666 9.54163 10.3333 10.1416 9.72496L11.175 8.67496C11.4833 8.37496 11.6666 7.95829 11.6666 7.49996C11.6666 6.58329 10.9166 5.83329 9.99996 5.83329C9.08329 5.83329 8.33329 6.58329 8.33329 7.49996H6.66663C6.66663 5.65829 8.15829 4.16663 9.99996 4.16663C11.8416 4.16663 13.3333 5.65829 13.3333 7.49996C13.3333 8.23329 13.0333 8.89996 12.5583 9.37496Z" fill="currentColor"/>
</svg>
