<svg width="16" height="20" viewBox="0 0 16 20" fill="none" xmlns="http://www.w3.org/2000/svg">
<path d="M1.5 20C1.1 20 0.75 19.85 0.45 19.55C0.15 19.25 0 18.9 0 18.5V1.5C0 1.1 0.15 0.75 0.45 0.45C0.75 0.15 1.1 0 1.5 0H10.52L16 5.48V18.5C16 18.9 15.85 19.25 15.55 19.55C15.25 19.85 14.9 20 14.5 20H1.5ZM9.77 6.15V1.5H1.5V18.5H14.5V6.15H9.77Z" fill="#C2D1FC"/>
<path d="M8.57 14.8H10.4V13.61H8.57V12.86H10.4V11.54H9.07L11 8H9.66L8 11.04L6.34 8H5L6.93 11.54H5.6V12.86H7.43V13.61H5.6V14.8H7.43V16H8.57V14.8Z" fill="#C2D1FC"/>
</svg>
